<?xml version="1.0" encoding="UTF-8" standalone="no"?>
<!-- Created with Inkscape (http://www.inkscape.org/) -->

<svg
   width="64"
   height="64"
   viewBox="0 0 16.933333 16.933334"
   version="1.1"
   id="svg5"
   inkscape:version="1.1 (ce6663b3b7, 2021-05-25)"
   sodipodi:docname="delete.svg"
   xmlns:inkscape="http://www.inkscape.org/namespaces/inkscape"
   xmlns:sodipodi="http://sodipodi.sourceforge.net/DTD/sodipodi-0.dtd"
   xmlns="http://www.w3.org/2000/svg"
   xmlns:svg="http://www.w3.org/2000/svg">
  <sodipodi:namedview
     id="namedview7"
     pagecolor="#ffffff"
     bordercolor="#666666"
     borderopacity="1.0"
     inkscape:pageshadow="2"
     inkscape:pageopacity="0.0"
     inkscape:pagecheckerboard="0"
     inkscape:document-units="mm"
     showgrid="false"
     units="px"
     width="64px"
     inkscape:zoom="1.6730892"
     inkscape:cx="59.470826"
     inkscape:cy="15.241267"
     inkscape:window-width="1600"
     inkscape:window-height="836"
     inkscape:window-x="0"
     inkscape:window-y="27"
     inkscape:window-maximized="1"
     inkscape:current-layer="layer1" />
  <defs
     id="defs2" />
  <g
     inkscape:label="Layer 1"
     inkscape:groupmode="layer"
     id="layer1">
    <path
       style="fill:#dc3545;fill-opacity:1;stroke-width:0.0289595"
       d="M 7.8989762,15.359326 C 7.3902171,15.301853 7.2472615,15.282081 6.9858568,15.233023 6.3241041,15.108849 5.7520379,14.920878 5.1147085,14.618197 3.3355765,13.773254 1.9914826,12.276376 1.4060153,10.487935 1.1819325,9.8034252 1.0944208,9.2319095 1.0950406,8.4570262 1.0959372,7.3349102 1.3238616,6.4185187 1.8509866,5.4176657 2.733704,3.7416502 4.2498967,2.5032276 6.1326129,1.9204455 8.5412283,1.1748753 11.166866,1.6206018 13.126364,3.1076988 c 1.137675,0.863402 2.018941,2.1066421 2.421958,3.4167637 0.212944,0.6922363 0.291474,1.23082 0.289952,1.9885889 -0.0047,2.3003736 -1.223037,4.4146736 -3.287759,5.7051956 -0.913271,0.570826 -1.906212,0.925583 -3.0498357,1.089641 -0.2862397,0.04106 -1.3820485,0.07625 -1.6017031,0.05144 z m 2.3857978,-3.007053 c 0.174979,-0.07433 0.381153,-0.260284 0.45784,-0.412934 0.07304,-0.145382 0.06028,-0.0542 0.432539,-3.0901372 0.138856,-1.1324075 0.253451,-2.1377075 0.254655,-2.2340005 l 0.0022,-0.1750783 H 8.4679516 5.5039065 l 4.911e-4,0.203091 c 2.688e-4,0.1117047 0.1395652,1.3199861 0.3095484,2.6850801 0.3379647,2.7141369 0.319633,2.6193119 0.549149,2.8404349 0.059925,0.05773 0.1773997,0.134785 0.2610687,0.171239 l 0.1521243,0.06627 1.6915178,-3.43e-4 c 1.5982352,-3.22e-4 1.6984352,-0.0033 1.8169682,-0.05363 z M 9.6493323,11.344279 c -0.139945,-0.05446 -0.147161,-0.08861 -0.108845,-0.515167 0.252045,-2.8055154 0.307595,-3.4080681 0.321488,-3.4871473 0.02239,-0.1274419 0.109687,-0.2015284 0.2374667,-0.2015284 0.123701,0 0.224537,0.080691 0.224537,0.1796914 0,0.037205 -0.0266,0.3491918 -0.0591,0.6933107 -0.0325,0.3441178 -0.106497,1.1551066 -0.164421,1.8021956 -0.1250637,1.397087 -0.1250217,1.396765 -0.1897687,1.468257 -0.06024,0.06651 -0.176561,0.09339 -0.261359,0.06039 z m -2.6463332,-0.07577 c -0.034132,-0.04059 -0.062055,-0.08807 -0.062055,-0.105491 0,-0.01742 -0.026499,-0.31511 -0.058888,-0.66152 C 6.8496672,10.155087 6.7759804,9.3422225 6.7183217,8.6951324 6.6606641,8.0480435 6.6064813,7.4643157 6.5979233,7.3979617 6.5848103,7.2962671 6.5938233,7.26657 6.6555123,7.2088771 c 0.096837,-0.0906 0.2510479,-0.092295 0.3399722,-0.00373 0.061394,0.061146 0.07486,0.1728831 0.2444299,2.0293391 0.098705,1.0805448 0.1712671,1.9845918 0.1612599,2.0089938 -0.049649,0.121048 -0.3040127,0.137036 -0.3981765,0.02502 z m 1.2851763,0.01778 c -0.058751,-0.05498 -0.059879,-0.09338 -0.059879,-2.0449151 0,-1.95154 0.00113,-1.9899424 0.059879,-2.0449158 0.097725,-0.091436 0.2547436,-0.08381 0.3517759,0.017105 l 0.067364,0.07006 v 1.9555384 c 0,1.9359495 -6.232e-4,1.9562785 -0.062055,2.0293475 -0.079167,0.09417 -0.2655322,0.103446 -0.3570882,0.01778 z M 11.745903,6.0269385 c -0.0021,-0.2653584 -0.01105,-0.3156058 -0.0756,-0.4229348 -0.04574,-0.076014 -0.124067,-0.1497286 -0.208342,-0.1960883 L 11.326916,5.3336304 8.5331122,5.3260604 C 6.7061099,5.3210904 5.7001403,5.3283204 5.6261276,5.3470074 5.451707,5.3909574 5.3159344,5.4898736 5.2419446,5.6269133 5.1850956,5.732212 5.1745806,5.7966442 5.1745806,6.0398729 v 0.2881954 h 3.2868077 3.2868087 l -0.0023,-0.301134 z M 9.4450653,5.0184875 C 9.4394833,4.8359648 9.4235223,4.7533415 9.3823835,4.6949109 9.2798167,4.5492529 9.2108954,4.5352613 8.5965344,4.5353754 8.0848258,4.535459 8.0247029,4.5405725 7.9346029,4.592013 7.8021045,4.6675976 7.7551559,4.7858711 7.7541933,5.0464979 l -8.021e-4,0.2170972 h 0.8495572 0.8495559 l -0.0074,-0.2451087 z"
       id="path111" />
  </g>
</svg>
